<?xml version="1.0" standalone="no"?><!DOCTYPE svg PUBLIC "-//W3C//DTD SVG 1.1//EN" "http://www.w3.org/Graphics/SVG/1.1/DTD/svg11.dtd"><svg t="1513154962312" class="icon" style="" viewBox="0 0 1024 1024" version="1.1" xmlns="http://www.w3.org/2000/svg" p-id="8281" xmlns:xlink="http://www.w3.org/1999/xlink" width="200" height="200"><defs><style type="text/css"></style></defs><path d="M512 64.4C264.8 64.4 64.4 264.8 64.4 512S264.8 959.6 512 959.6 959.6 759.2 959.6 512 759.2 64.4 512 64.4z m-64.3 294.2c0 2.4-0.8 4.4-2.5 6.1-1.7 1.7-3.7 2.5-6.1 2.5l-75.3 30.1c-1.7 0-3.1-0.4-4.6-1.3l-59.4-40.8c-3.3-2.1-4.8-5.9-3.7-9.7 1.1-3.8 4.4-6.2 8.3-6.2l134.7-43c2.4 0 4.4 0.8 6.1 2.5 1.7 1.7 2.5 3.7 2.5 6.1v53.7z m262-60.2c0 4.8-3.9 8.6-8.6 8.6l-157.5 43c-4.8 0-8.6 3.9-8.6 8.6V798c0 2.4-0.8 4.4-2.5 6.1-1.7 1.7-3.7 2.5-6.1 2.5H516c-2.7 0-5-1.1-6.7-3.2L459 741.1c-2.1-2.7-2.5-6-1.1-9.1 1.5-3.1 4.4-4.9 7.8-4.9h-4.1c4.8 0 8.6-3.9 8.6-8.6V296.3c0-2.4 0.8-4.4 2.5-6.1 1.7-1.7 3.7-2.5 6.1-2.5l123-43c4.8 0 8.6-3.8 8.6-8.6v1.2c0-3.2 1.6-6 4.5-7.5 2.9-1.6 6.1-1.4 8.8 0.3l82 52.6c2.5 1.6 4 4.2 4 7.2v8.5z" p-id="8282"></path></svg>